<?xml version="1.0" encoding="UTF-8" standalone="no"?>
<svg
   xmlns:dc="http://purl.org/dc/elements/1.1/"
   xmlns:cc="http://creativecommons.org/ns#"
   xmlns:rdf="http://www.w3.org/1999/02/22-rdf-syntax-ns#"
   xmlns:svg="http://www.w3.org/2000/svg"
   xmlns="http://www.w3.org/2000/svg"
   xmlns:sodipodi="http://sodipodi.sourceforge.net/DTD/sodipodi-0.dtd"
   xmlns:inkscape="http://www.inkscape.org/namespaces/inkscape"
   inkscape:version="1.0 (4035a4fb49, 2020-05-01)"
   sodipodi:docname="Scuderia_Alpha-Tauri.svg"
   id="svg41"
   viewBox="0 0 945.33672 809.99995"
   version="1.2"
   height="1080"
   width="1260.449">
  <sodipodi:namedview
     inkscape:current-layer="svg41"
     inkscape:window-maximized="1"
     inkscape:window-y="-11"
     inkscape:window-x="-11"
     inkscape:cy="187.30964"
     inkscape:cx="1568.1709"
     inkscape:zoom="0.24804855"
     showguides="false"
     fit-margin-bottom="0"
     fit-margin-right="0"
     fit-margin-left="0"
     fit-margin-top="0"
     units="px"
     showgrid="false"
     id="namedview43"
     inkscape:window-height="986"
     inkscape:window-width="1920"
     inkscape:pageshadow="2"
     inkscape:pageopacity="0"
     guidetolerance="10"
     gridtolerance="10"
     objecttolerance="10"
     borderopacity="1"
     bordercolor="#666666"
     pagecolor="#ffffff" />
  <metadata
     id="metadata2">
    <rdf:RDF>
      <cc:Work
         rdf:about="">
        <dc:format>image/svg+xml</dc:format>
        <dc:type
           rdf:resource="http://purl.org/dc/dcmitype/StillImage" />
        <dc:title></dc:title>
      </cc:Work>
    </rdf:RDF>
  </metadata>
  <defs
     id="defs17">
    <clipPath
       id="clipPath6">
      <path
         id="path4"
         d="M 0,0 H 595 V 841.89 H 0 Z" />
    </clipPath>
    <clipPath
       id="clipPath10">
      <path
         id="path8"
         d="M 0,0 H 595.28 V 841.89 H 0 Z" />
    </clipPath>
    <clipPath
       id="clip1">
      <rect
         y="0"
         x="0"
         id="rect12"
         height="842"
         width="596" />
    </clipPath>
    <g
       id="g15"
       clip-path="url(#clip1)" />
  </defs>
  <path
     transform="scale(0.74999997)"
     d="M 923.80664 951.17188 L 923.80664 1078.3828 L 957.43359 1078.3828 L 957.43359 1058.9414 L 981.85156 1058.9414 L 984.17773 1058.8477 L 995.66602 1078.3809 L 1034.7812 1078.3809 L 1015.9922 1046.707 C 1029.1553 1035.9171 1035.7598 1022.0099 1035.7598 1005.0332 C 1035.7598 990.19612 1030.5036 977.45298 1019.9922 966.94141 L 1019.9902 966.9375 C 1009.4789 956.42629 996.73507 951.17188 981.85156 951.17188 L 923.80664 951.17188 z M 957.43555 984.75391 L 981.85352 984.75391 C 987.48092 984.75391 992.27118 986.75386 996.22461 990.70703 C 1000.178 994.66022 1002.1777 999.45224 1002.1777 1005.0332 C 1002.1777 1010.6142 1000.1777 1015.404 996.22461 1019.3574 C 992.27154 1023.3108 987.48128 1025.2656 981.85352 1025.2656 L 957.43555 1025.2656 L 957.43555 984.75391 z "
     style="fill:#011321;stroke-width:21.0811"
     id="path87" />
  <path
     transform="scale(0.74999997)"
     d="M 690.78906 951.16406 L 644.97656 1078.375 L 678.69727 1078.375 L 684 1063.8184 L 731.16016 1063.8184 L 736.37109 1078.375 L 770.18359 1078.375 L 724.37109 951.16406 L 690.78906 951.16406 z M 707.58008 994.18555 L 720.46484 1032.9766 L 694.55664 1032.9766 L 707.58008 994.18555 z "
     style="fill:#011321;stroke-width:21.0811"
     id="path95" />
  <path
     transform="scale(0.74999997)"
     d="M 492.79102 951.16797 L 447.11719 1078.3809 L 456.97656 1078.3809 L 471.53516 1037.916 L 526.55664 1037.916 L 541.11523 1078.3809 L 550.97461 1078.3809 L 505.25586 951.16797 L 492.79102 951.16797 z M 499.02148 961.35938 L 523.25391 1028.8008 L 474.78906 1028.8008 L 499.02148 961.35938 z "
     style="fill:#011321;stroke-width:21.0811"
     id="path81" />
  <path
     transform="scale(0.74999997)"
     d="M 211.95898 951.21094 L 211.95898 1078.375 L 221.07422 1078.375 L 221.07422 1037.959 L 265.63281 1037.959 C 277.53964 1037.959 287.86429 1033.6799 296.23633 1025.2148 C 304.70113 1016.7967 308.98047 1006.4697 308.98047 994.60938 C 308.98047 982.74899 304.70124 972.42465 296.23633 964.05273 L 296.23633 964.04688 C 287.86465 955.58219 277.53963 951.21094 265.63281 951.21094 L 211.95898 951.21094 z M 221.07422 960.42383 L 265.63086 960.42383 C 275.07297 960.42383 283.21421 963.7728 289.86523 970.42383 C 296.51626 977.07498 299.86328 985.16763 299.86328 994.60938 C 299.86328 1004.005 296.51626 1012.0989 289.86523 1018.75 C 283.21409 1025.4476 275.07261 1028.8418 265.63086 1028.8418 L 221.07422 1028.8418 L 221.07422 960.42383 z "
     style="fill:#011321;stroke-width:21.0811"
     id="path91" />
  <path
     d="m 42.490854,24.27829 c -2.197701,-0.941859 -5.093021,-1.848801 -8.651046,-2.720916 -2.860493,-0.69771 -5.127848,-1.39533 -6.7325,-2.058123 -1.569735,-0.662793 -2.755743,-1.499991 -3.558114,-2.546511 -0.767096,-1.011603 -1.186008,-2.406933 -1.186008,-4.081329 0,-2.476677 0.836751,-4.3953112 2.511594,-5.8254685 1.709313,-1.4302467 4.18599,-2.1627838 7.32546,-2.1627838 7.744103,0 11.476979,3.6278579 11.476979,11.0233293 v 0.523216 h 5.371998 v -0.523216 c 0,-5.197592 -1.465074,-9.2087306 -4.290651,-11.8600807 C 41.933079,1.3604083 37.712173,-4.8925199e-6 32.201043,-4.8925199e-6 29.131318,-4.8925199e-6 26.375574,0.55812708 24.10813,1.6394743 21.805858,2.7208215 20.026801,4.2557291 18.840793,6.209191 c -1.220925,1.9185452 -1.813974,4.220907 -1.813974,6.7325 0,2.965065 0.627787,5.337171 1.883718,7.116228 1.255842,1.74414 2.999982,3.13947 5.162765,4.081329 2.092951,0.941859 4.953355,1.848801 8.476552,2.720915 3.034898,0.802282 5.406914,1.534819 7.08131,2.197612 1.604652,0.662792 2.825577,1.49999 3.662775,2.54651 0.836751,1.011603 1.255752,2.44185 1.255752,4.18599 0,2.825577 -0.941769,5.023188 -2.825487,6.523179 -1.883718,1.569735 -4.709295,2.337188 -8.337152,2.337188 -3.802263,0 -6.802156,-0.976775 -8.895195,-2.930148 -2.058123,-1.918545 -3.104643,-4.988271 -3.104643,-9.069421 V 32.127858 H 16.08496 v 0.523215 c 0,5.476659 1.534908,9.697208 4.53489,12.593243 2.999892,2.895321 7.290543,4.360395 12.76738,4.360395 5.023188,0 9.069422,-1.255752 12.000284,-3.732519 2.999982,-2.511594 4.499973,-5.93013 4.499973,-10.150857 0,-3.03481 -0.697442,-5.476659 -2.023206,-7.290633 -1.360503,-1.813884 -3.174387,-3.209303 -5.371998,-4.151073"
     id="path19"
     style="fill:#011321;stroke-width:15.8108" />
  <path
     d="m 156.34978,32.235019 c -0.48848,3.767435 -1.98829,6.802245 -4.43014,9.034594 -2.44185,2.197611 -5.54649,3.313875 -9.20873,3.313875 -3.0349,0 -5.7209,-0.802281 -7.95343,-2.337189 -2.23253,-1.569735 -3.97667,-3.872007 -5.19759,-6.802244 -1.18601,-2.965065 -1.81389,-6.558096 -1.81389,-10.639335 0,-4.08124 0.62779,-7.67436 1.81389,-10.639335 1.22092,-2.930149 2.96506,-5.23251 5.23251,-6.802245 2.26744,-1.5349076 4.95344,-2.3371888 8.05799,-2.3371888 3.6977,0 6.80225,1.116264 9.1748,3.244131 2.37202,2.1976108 3.73252,5.1278488 4.08133,8.8254508 l 0.0357,0.453471 h 5.47675 l -0.0357,-0.523215 c -0.17414,-3.244131 -1.04652,-6.174369 -2.58134,-8.7557068 -1.53491,-2.5465107 -3.69769,-4.6045442 -6.48835,-6.0697076 -2.75574,-1.4650741 -5.99987,-2.19761116 -9.66238,-2.19761116 -4.22082,0 -7.91851,1.01160306 -11.02333,2.99998166 -3.10464,2.0232061 -5.51158,4.9185269 -7.15106,8.6161289 -1.63956,3.697602 -2.47676,8.12783 -2.47676,13.186203 0,5.058104 0.83675,9.488243 2.47676,13.186203 1.63948,3.697602 4.04642,6.592922 7.11614,8.616128 3.06973,1.988379 6.76733,2.999982 10.91885,2.999982 3.55811,0 6.76733,-0.69762 9.5579,-2.127867 2.75574,-1.430247 4.98827,-3.453453 6.59292,-6.034791 1.60465,-2.581338 2.61626,-5.651064 2.96507,-9.069421 l 0.0714,-0.558132 h -5.47675 z"
     id="path21"
     style="fill:#011321;stroke-width:15.8108" />
  <path
     d="m 263.06461,30.806201 c 0,4.569717 -1.08135,8.057997 -3.13947,10.360716 -2.05812,2.267444 -5.02319,3.418536 -8.82545,3.418536 -3.80226,0 -6.80224,-1.151181 -8.86037,-3.418536 -2.09304,-2.302272 -3.13947,-5.790642 -3.13947,-10.360716 V 0.87603906 h -5.26742 V 30.875856 c 0,6.034791 1.49999,10.70899 4.43022,13.883644 2.96507,3.209304 7.29055,4.848783 12.83704,4.848783 5.58132,0 9.90707,-1.604652 12.83704,-4.813866 2.93014,-3.174387 4.39522,-7.848764 4.39522,-13.918472 V 0.87612836 h -5.26734 z"
     id="path23"
     style="fill:#011321;stroke-width:15.8108" />
  <path
     d="M 355.04476,0.87246701 H 340.84767 V 48.767335 h 14.19709 c 7.74401,0 13.81399,-2.127867 18.06919,-6.244113 4.2209,-4.151073 6.38369,-10.11603 6.38369,-17.720914 0,-7.604525 -2.16279,-13.569304 -6.38369,-17.720913 C 368.85821,2.9651494 362.75323,0.87219911 355.04476,0.87219911 M 373.95159,24.802219 c 0,6.104535 -1.63948,10.8483 -4.88361,14.127437 -3.24413,3.279137 -7.98825,4.918527 -14.02295,4.918527 h -8.93011 V 5.7558985 h 8.93011 c 6.03479,0 10.77864,1.6394792 14.02295,4.9185265 3.24413,3.279048 4.88361,8.02317 4.88361,14.127437"
     id="path25"
     style="fill:#011321;stroke-width:15.8108" />
  <path
     d="m 458.99126,26.617979 h 23.65051 v -4.8837 H 458.99126 V 5.7574167 h 24.90697 V 0.87371723 H 453.68945 V 48.733757 h 30.97677 v -4.883699 h -25.67407 z"
     id="path27"
     style="fill:#011321;stroke-width:15.8108" />
  <path
     d="m 587.04906,28.082517 c -0.7671,-0.976776 -1.74414,-1.709313 -2.96507,-2.267445 2.23253,-0.732537 4.11625,-2.023206 5.54641,-3.906923 1.74423,-2.197612 2.61625,-4.8837 2.61625,-8.02317 0,-4.1859897 -1.39533,-7.4301206 -4.18599,-9.6972081 -2.72091,-2.1976111 -6.9069,-3.31387507 -12.38338,-3.31387507 H 561.41053 V 48.733936 h 5.30225 V 28.083053 h 9.17391 c 2.47667,0 4.39531,0.523215 5.65106,1.534907 1.29067,1.011603 2.44185,2.965065 3.41863,5.755725 l 4.56962,13.36034 h 5.75582 l -5.16277,-14.337294 c -1.08134,-2.930237 -2.09295,-5.058104 -3.06972,-6.313857 M 586.84036,14.05992 c 0,2.755743 -0.90694,4.953444 -2.72082,6.62784 -1.77906,1.639479 -4.56972,2.511593 -8.16275,2.511593 h -9.24445 V 5.7579525 h 8.89519 c 7.53478,0 11.2323,2.7209157 11.2323,8.3022355"
     id="path29"
     style="fill:#011321;stroke-width:15.8108" />
  <path
     d="m 684.65518,48.737865 h 5.30225 V 0.87782508 h -5.30225 z"
     id="path31"
     style="fill:#011321;stroke-width:15.8108" />
  <path
     d="m 799.67502,0.87246701 h -6.52309 L 774.17544,48.767335 h 5.68589 l 5.86039,-15.174046 h 21.31349 l 5.7209,14.825771 0.13931,0.34881 h 5.68598 z m -3.31388,5.19759289 7.11623,18.3835281 1.60456,4.185989 h -17.4414 l 1.63948,-4.185989 c 2.1977,-5.616237 4.46506,-11.441259 6.69758,-17.3717465 z"
     id="path33"
     style="fill:#011321;stroke-width:15.8108" />
  <path
     id="path76"
     d="m 395.50111,551.44189 c -3.73252,3.52319 -7.5697,6.94173 -11.5118,10.22051 -3.97667,3.31388 -8.058,6.45343 -12.24408,9.48824 -38.61559,27.97626 -86.05681,44.54608 -137.30047,44.54608 -129.2455,0 -234.41542589,-105.20565 -234.41542589,-234.45115 0,-129.28123 105.16992589,-234.41543 234.41542589,-234.41543 51.24366,0 98.68667,16.50017 137.30047,44.51125 -35.7901,34.81315 -61.81334,79.63873 -73.46446,129.94205 -16.01169,-17.02258 -38.68524,-27.6628 -63.83601,-27.6628 -48.31369,0 -87.62672,39.31303 -87.62672,87.62672 0,48.31369 39.31303,87.62672 87.62672,87.62672 25.15077,0 47.82522,-10.63934 63.83601,-27.66281 4.70921,-4.98827 8.82545,-10.53485 12.27891,-16.56982 7.32546,-12.80221 11.54663,-27.59226 11.54663,-43.39499 0,-66.97583 28.22094,-127.45948 73.3948,-170.22578 3.73243,-3.5232 7.56961,-6.90691 11.51181,-10.18569 3.97667,-3.31387 8.058,-6.45343 12.24408,-9.48824 38.61558,-28.01108 85.77818,-44.51125 138.62212,-44.51125 l -0.0357,143.40866 c 0,0 -1.08135,1.08135 -2.96507,1.88372 -0.83675,0.34881 -4.84878,1.67439 -8.05799,2.0232 -21.20902,2.33719 -40.18551,12.31374 -54.10398,27.13951 -4.7092,4.98827 -8.82545,10.56968 -12.2789,16.53499 -7.32546,12.83704 -11.54664,27.62798 -11.54664,43.42981 0,66.94101 -28.22094,127.45949 -73.3948,170.199"
     style="fill:#011321;stroke-width:15.8108" />
  <path
     id="path74"
     d="m 590.22193,334.78006 c -1.15109,-0.90695 -2.23253,-1.98838 -3.06973,-3.17439 -1.29067,-1.81397 -1.29067,-3.83718 -0.20896,-5.79064 1.08134,-1.91855 2.82548,-2.89532 5.05801,-2.86041 0.90694,0.0348 1.88372,0.10466 2.72092,0.45347 1.88372,0.73254 3.83718,1.43025 5.5464,2.5116 8.26732,5.30225 14.89543,12.20925 19.70876,20.75536 2.12795,3.76735 3.24422,7.98826 3.27905,11.30195 -0.20897,1.43025 0,3.24413 -1.91855,4.08133 -1.3605,0.55813 -2.82558,-0.0348 -4.0465,-2.05812 -5.19759,-8.68596 -12.73255,-14.89543 -20.82502,-20.58123 -2.12787,-1.49999 -4.25574,-2.99998 -6.24411,-4.63946"
     style="fill:#011321;stroke-width:15.8108" />
  <path
     transform="scale(0.74999997)"
     d="M 781.52344 195.78125 L 781.52344 381.05859 L 785.05859 381.71094 C 787.98874 382.45511 790.82657 383.57095 791.61719 383.89648 C 793.29152 384.59423 794.96555 385.43045 798.54688 387.52344 C 819.38381 401.05792 842.035 411.24446 863.70898 423.24414 C 876.73146 430.50015 889.84821 437.43025 902.08008 445.98828 C 914.12621 454.35996 925.61414 463.338 934.96289 474.82617 C 942.03209 483.57053 948.35745 492.733 952.35742 503.29102 C 958.40418 519.2914 964.21891 535.33645 969.98633 551.42969 C 974.73049 564.73199 979.0084 578.22034 984.82227 591.10352 C 989.84575 602.17328 995.56704 612.87083 1002.6367 622.82422 C 1012.9159 637.24337 1024.5904 647.98833 1040.3574 655.98828 C 1040.3574 655.98828 1045.0539 658.12712 1044.2168 659.15039 C 1036.7281 662.03398 1033.4273 662.07919 1027.3809 660.21875 C 1021.7998 658.45131 1017.2411 655.01007 1013.1016 651.05664 C 1009.5202 647.66141 1006.2652 643.89458 1002.7305 640.40625 C 997.05627 634.87149 991.33502 629.38349 985.47461 623.98828 C 983.89326 622.54636 981.84721 621.38253 979.80078 620.5918 C 976.9635 619.52209 974.03345 621.61509 974.26562 624.5918 C 974.40519 626.73121 974.96398 629.05721 976.0332 630.87109 C 978.21918 634.45243 980.77592 637.8016 983.33398 641.15039 C 987.65973 646.91794 991.89378 652.73205 996.54492 658.17383 C 1000.2191 662.49909 1004.4039 666.45176 1008.5898 670.26562 C 1011.5201 672.91668 1014.9619 675.00923 1018.0781 677.42773 C 1019.1944 678.26503 1020.1709 679.33587 1021.7988 680.82422 C 1020.2175 681.38242 1019.4264 681.79991 1018.543 681.93945 C 1011.7061 682.63719 1005.2421 681.01086 999.00977 678.40625 C 992.12643 675.52253 985.75312 671.66188 979.66016 667.38281 C 975.79973 664.68508 971.9863 661.84788 967.98633 659.38281 C 962.91687 656.22 959.61382 656.49775 955.19531 660.45117 C 952.5907 662.73013 950.26574 665.38171 948.0332 667.98633 C 943.8938 672.86991 938.77787 675.2423 932.35938 675.00977 C 928.63849 674.91677 924.91815 674.91621 921.19727 675.19531 C 912.12667 675.93949 903.80158 679.01051 896.17383 683.84766 C 893.42967 685.56855 890.77857 687.42798 887.94141 688.96289 C 884.22053 690.91632 880.49834 692.91594 876.54492 694.4043 C 868.12692 697.52102 858.40783 691.84645 856.87305 682.96289 C 856.50155 680.77693 856.5476 678.49815 856.5 676.26562 C 856.4524 674.31218 856.63931 672.3128 856.5 670.35938 C 856.17435 665.47567 854.82662 664.40514 849.89648 665.00977 C 843.7103 665.8005 842.22148 664.08079 844.31445 657.94141 C 846.40744 651.89513 849.01161 645.98781 851.24414 639.94141 C 854.91834 630.12781 859.7557 620.96482 865.47656 612.2207 C 868.17428 608.08177 870.54601 603.70919 872.68555 599.24414 C 873.98792 596.59309 874.82527 593.70989 875.47656 590.82617 C 876.12763 588.17501 874.96516 586.03638 873.01172 585.19922 C 870.91863 584.31549 869.15209 585.01328 867.61719 586.45508 C 863.61721 590.2225 859.47641 593.80243 855.70898 597.75586 C 847.47661 606.45295 837.29114 610.87145 825.57031 612.17383 C 822.12853 612.59247 818.68799 613.29034 815.24609 613.70898 C 813.57175 613.89509 811.8971 613.70898 809.99023 613.70898 C 809.43203 610.73228 810.68747 608.54666 811.43164 606.26758 C 815.10597 594.63938 817.57112 582.82455 818.91992 570.68555 C 819.98963 560.96481 818.82693 551.38478 816.6875 541.89648 C 816.26886 539.9896 815.431 538.12789 814.4082 536.5 C 812.64075 533.66284 809.0599 533.47753 806.73438 535.84961 C 805.29257 537.33796 804.54883 539.15072 804.54883 541.19727 L 804.45312 549.38477 C 804.59267 560.36166 803.94227 571.24385 801.57031 581.94141 C 800.59347 586.26667 799.19702 590.54646 797.66211 594.73242 C 795.70868 600.17442 792.49933 604.82556 788.17383 608.73242 C 785.05757 611.61614 781.89618 614.40579 778.87305 617.33594 C 771.84981 624.35858 771.10412 632.77707 776.91797 640.73047 C 782.87138 648.96284 788.77846 657.24355 795.15039 665.15039 C 800.35962 671.66104 803.00977 678.82415 803.00977 687.05664 C 802.96333 689.28917 803.19687 691.52137 803.56836 693.75391 C 803.80103 694.87017 804.5922 695.89358 805.38281 697.52148 C 806.77817 696.4982 808.26623 695.89393 808.87109 694.82422 C 813.61501 686.03342 815.10435 676.59074 813.47656 666.73047 C 813.10448 664.40495 811.84849 662.08008 810.45312 660.08008 C 806.1275 653.70874 801.56857 647.47469 797.10352 641.24219 L 791.47656 630.77734 C 797.61656 625.24258 799.98839 625.56924 804.5 632.17383 C 811.01184 641.80168 817.24406 651.66078 823.47656 661.47461 C 827.01158 666.96246 827.71013 672.96193 826.36133 679.33398 C 824.91941 686.12564 823.84849 693.01014 822.45312 701.28906 C 820.91834 708.87037 819.42963 710.3589 811.42969 710.3125 C 805.61535 710.26594 801.29159 712.26549 798.36133 717.24219 C 795.7567 721.7538 791.75663 724.49773 787.10547 726.45117 L 781.52344 728.91602 L 781.52344 820.91602 L 796.82617 820.68359 C 960.96163 816.6829 1093.8445 682.59995 1095.0078 517.25 C 1095.0554 514.27329 1094.9126 511.29702 1095.0078 508.32031 L 1095.0078 397.48438 L 1187.752 397.48438 L 1260.4453 195.78125 L 781.52344 195.78125 z "
     style="fill:#011321;stroke-width:21.0811"
     id="path72" />
  <path
     id="path70"
     d="m 688.31911,478.35807 c 2.54643,-0.69771 4.25574,0.73254 4.63947,3.34879 0.13931,1.11627 0.13931,2.19762 0.17413,2.72092 0,7.3952 -2.05812,10.91885 -10.81347,11.54663 -3.66268,-0.20932 -4.74412,-1.186 -5.09293,-3.06972 -0.80193,-4.77904 0.62779,-8.86037 4.5348,-11.68595 1.88372,-1.39533 4.25582,-2.19761 6.55809,-2.8604"
     style="fill:#011321;stroke-width:15.8108" />
  <path
     id="path68"
     d="m 701.88869,442.21921 c -1.29067,-4.04641 -3.62786,-7.29063 -7.01157,-9.83741 -2.82549,-2.09304 -5.61615,-4.22091 -8.54638,-6.2092 -1.22093,-0.83719 -2.65109,-1.29067 -4.04642,-1.8488 -1.77905,-0.73253 -3.27904,-0.13957 -4.43022,1.32559 -1.01161,1.32558 -1.84881,2.79066 -2.89533,4.11624 -1.25575,1.63948 -2.96506,2.09304 -4.95335,1.5 -1.81397,-0.52322 -2.75583,-1.95347 -2.82558,-4.29066 -0.0357,-0.94185 -0.0357,-1.91854 0.17414,-2.79066 1.56974,-6.20919 4.15116,-11.92973 8.09291,-16.98775 0.55814,-0.73253 1.25585,-1.36041 1.98838,-1.91854 1.91855,-1.46508 3.73252,-1.39533 5.58132,0.0696 6.66267,6.7325 12.34856,12.10477 18.41836,17.02258 6.558,5.30226 8.33706,12.90669 9.48824,20.61606 -0.20896,1.11626 -0.24379,2.05812 -0.55813,2.89532 -0.48848,1.29067 -1.49999,2.09304 -2.96507,2.19761 -1.32558,0.10466 -2.68599,-0.0348 -3.41862,-1.32559 -0.80192,-1.43024 -1.56974,-2.96506 -2.09295,-4.5348"
     style="fill:#011321;stroke-width:15.8108" />
  <path
     id="path66"
     d="m 566.32915,511.67262 c -4.74413,0.1744 -9.38376,1.04652 -14.26675,2.19761 0.17414,4.29065 1.6744,7.84876 3.27896,11.33678 1.43025,3.06972 2.86049,3.90692 6.17437,3.48828 1.81388,-0.24415 3.66277,-0.80229 5.26733,-1.63948 3.20931,-1.81389 4.3604,-4.95345 3.5232,-8.5813 -0.55813,-2.40694 -1.74414,-4.46506 -3.97667,-6.80225"
     style="fill:#011321;stroke-width:15.8108" />
  <path
     id="path35"
     d="m 546.86356,557.33451 c 3.06972,3.2093 6.76741,4.22091 10.9885,2.72092 v 55.63906 c 0,0 0,-0.10449 -6.52318,-0.10449 -49.25492,-1.11626 -94.77527,-17.40657 -132.06742,-44.44159 20.26689,-18.90683 42.69665,-48.59231 55.95251,-77.68483 8.44172,0.27907 18.90683,0.13949 32.99944,-1.49999 7.2208,-0.83719 11.47698,-0.90694 18.69787,-1.186 2.93014,-0.10467 8.19757,-1.84881 7.3952,-7.25572 -0.45365,-3.24413 -2.19761,-7.70919 -3.55802,-11.19747 -1.60466,-4.08133 3.66268,-6.41851 5.7208,-3.2093 1.18601,1.88372 3.76744,7.98825 4.63947,10.01155 1.70931,3.90692 6.31385,8.54638 9.66238,10.9885 2.86049,2.09295 5.96504,3.73252 9.3141,4.95344 6.7325,2.40694 12.62807,6.31386 17.79057,11.2323 1.60465,1.53482 3.03481,3.27905 4.3604,5.0581 4.63946,6.06971 5.93013,9.06942 -0.48848,16.35997 -5.79055,6.59292 -12.83704,10.56968 -21.45281,11.79042 -5.79064,0.80228 -10.25534,-1.08134 -12.73255,-6.69758 -0.45365,-1.0116 -1.0116,-1.98838 -1.56974,-2.96507 -1.08143,-1.91854 -2.12786,-3.90692 -3.38371,-5.75572 -1.77905,-2.65117 -4.25573,-4.15107 -7.5696,-3.62786 -5.33717,0.80228 -10.63934,1.63948 -15.94204,2.65117 -0.90694,0.17441 -3.10464,1.60466 -2.51159,2.09304 2.82557,4.8837 5.93013,9.31411 9.52307,13.32552 1.70922,1.91854 3.76734,2.82557 6.41852,2.72091 5.16267,-0.20932 5.37199,0 7.49986,4.67438 1.0116,2.19761 1.98838,4.43014 3.20921,6.48826 1.0117,1.74414 2.23253,3.41854 3.62786,4.91853"
     style="fill:#011321;stroke-width:15.8108" />
  <path
     transform="scale(0.74999997)"
     d="M 45.720703 951.16016 L 0 1078.3711 L 9.90625 1078.3711 L 24.417969 1037.9082 L 79.441406 1037.9082 L 93.998047 1078.3711 L 103.9043 1078.3711 L 58.185547 951.16016 L 45.720703 951.16016 z M 51.953125 961.34961 L 76.185547 1028.791 L 27.720703 1028.791 L 51.953125 961.34961 z "
     style="fill:#011321;stroke-width:21.0811"
     id="path107" />
  <path
     id="path103"
     d="m 671.74385,713.37346 v 52.74302 c 0,24.24347 -19.63911,43.88346 -43.91829,43.88346 -24.24347,0 -43.88347,-19.6391 -43.88347,-43.88346 v -52.74302 h 25.1856 v 52.74302 c 0,10.325 8.37198,18.69787 18.69787,18.69787 10.36071,0 18.7318,-8.37198 18.7318,-18.69787 v -52.74302 z"
     style="fill:#011321;stroke-width:15.8108" />
  <path
     id="path101"
     d="m 795.26515,713.37346 h 25.18559 v 95.37359 h -25.18559 z"
     style="fill:#011321;stroke-width:15.8108" />
  <path
     id="path99"
     d="m 314.26255,713.33776 h 6.83707 v 95.44503 h -6.83707 v -30.38381 h -61.81334 v 30.38381 h -6.83707 v -95.44503 h 6.83707 v 58.21986 h 61.81334 z"
     style="fill:#011321;stroke-width:15.8108" />
  <path
     id="path97"
     d="m 99.386202,801.94143 h 47.790388 v 6.83716 H 92.549309 v -95.44503 h 6.837161 z"
     style="fill:#011321;stroke-width:15.8108" />
  <path
     id="path37"
     d="m 493.46149,713.37928 -9.06942,25.18559 h -23.26741 v 70.22015 h -25.25525 l 0.0357,-70.22015 h -23.2674 l -9.0346,-25.18559 z"
     style="fill:#011321;stroke-width:15.8108" />
</svg>
